<svg xmlns="http://www.w3.org/2000/svg" version="1.1" xmlns:xlink="http://www.w3.org/1999/xlink" width="512" height="512" x="0" y="0" viewBox="0 0 512 512" style="enable-background:new 0 0 512 512" xml:space="preserve" class=""><g><linearGradient id="a" x1="74.98" x2="437.02" y1="74.98" y2="437.02" gradientUnits="userSpaceOnUse"><stop stop-opacity="1" stop-color="#0fc8ff" offset="0"></stop><stop stop-opacity="1" stop-color="#00816FA6" offset="0"></stop></linearGradient><g data-name="Layer 2"><circle cx="256" cy="256" r="256" fill="url(#a)" opacity="1" data-original="url(#a)" class=""></circle><g fill="#fff"><path d="M181.27 235.08a17.64 17.64 0 0 1 24.95 0l32.14 32.14v-129A17.64 17.64 0 0 1 256 120.58a17.64 17.64 0 0 1 17.64 17.64v129l32.14-32.14a17.64 17.64 0 0 1 25 0l.24.23a17.64 17.64 0 0 1 0 24.95l-62.5 62.49a17.63 17.63 0 0 1-24.94 0L181 260.26a17.66 17.66 0 0 1 0-24.95z" fill="#ffffff" opacity="1" data-original="#ffffff" class=""></path><path d="M376.36 296.79a17.64 17.64 0 0 0-17.64 17.64v41.71H153.28v-41.71a17.64 17.64 0 0 0-17.64-17.64A17.64 17.64 0 0 0 118 314.43v46.9a30.72 30.72 0 0 0 30.09 30.09h215.82A30.72 30.72 0 0 0 394 361.33v-46.9a17.64 17.64 0 0 0-17.64-17.64z" fill="#ffffff" opacity="1" data-original="#ffffff" class=""></path></g></g></g></svg>